PathFileType	4	(X/Y/Z)	D:\TRACE\spot_10-12-23\spot_body_motion_3_3-v60.trc
DataRate	CameraRate	NumFrames	NumMarkers	Units	OrigDataRate	OrigDataStartFrame	OrigNumFrames
100.00	100.00	      39	9	mm	100.00	6126	      7000
Frame#	Time	front left toe			Front right toe			aft left toe			aft right toe			Arm			FL body			FR body			AL Body			AR Body			
		X1	Y1	Z1	X2	Y2	Z2	X3	Y3	Z3	X4	Y4	Z4	X5	Y5	Z5	X6	Y6	Z6	X7	Y7	Z7	X8	Y8	Z8	X9	Y9	Z9	

6126	61.250	-200.99954	15.20695	119.63258	323.75504	27.75111	57.46171	-245.21661	10.34976	609.51770	281.27982	8.38936	547.45282	1.78326	817.65326	-79.03786	-84.25052	554.71503	-65.69472	67.94621	559.80786	-71.32983	-59.07721	535.42346	817.65906	92.08186	534.01025	815.53711	
6127	61.260	-200.78763	15.34903	119.59442	324.03949	27.83490	57.46736	-245.07632	10.73485	609.41913	281.58359	8.46029	547.45990	1.87929	817.69690	-78.24313	-84.00964	554.71277	-64.93398	67.84255	560.32446	-71.30644	-58.81077	536.03436	818.88440	92.20282	534.41760	816.45380	
6128	61.270	-200.64519	15.43142	119.57383	324.31409	27.68065	57.40008	-244.85457	11.00853	609.35889	281.77188	8.73725	547.42395	1.99053	817.66235	-77.48087	-83.74335	554.63831	-63.99443	68.35597	559.68536	-69.59811	-58.63595	535.84094	819.27856	92.34045	534.63586	816.85144	
6129	61.280	-200.85663	15.73043	119.48074	324.56995	27.45168	57.54245	-244.58669	11.40341	609.37207	281.84848	9.17095	547.32617	2.19769	817.56317	-76.70920	-83.70023	554.74115	-63.21391	68.28062	560.14313	-69.52554	-58.39171	536.28870	820.32727	92.57762	535.01062	818.13312	
6130	61.290	-200.63338	15.83138	119.43723	324.80362	27.44187	57.56539	-244.50838	11.80462	609.35907	282.10376	9.37353	547.18134	2.35368	817.56982	-76.11563	-83.56650	554.58856	-62.39406	68.63500	559.85364	-67.96297	-58.06022	536.53107	821.06415	92.32511	535.20367	818.58801	
6131	61.300	-200.37532	15.90845	119.41045	324.92142	27.44898	57.53741	-244.27005	12.14252	609.37018	282.23550	9.62199	547.10986	2.49197	817.58466	-75.31231	-83.26113	554.67780	-61.55132	68.91452	560.06976	-67.67890	-57.92945	536.90442	821.88861	92.76766	535.46747	819.74182	
6132	61.310	-200.23218	15.94047	119.36641	325.16400	27.34937	57.74735	-244.14720	12.42570	609.33038	282.32916	9.98969	547.03564	2.60572	817.67584	-74.43177	-83.08582	554.66937	-60.74209	68.93082	560.29968	-67.03922	-57.93165	537.53735	823.00958	93.65702	535.95630	821.40125	
6133	61.320	-199.86406	15.84205	119.31486	325.36420	27.54646	57.58512	-243.98097	12.64873	609.24304	282.44470	10.34137	546.92285	2.65306	817.82751	-73.68552	-82.95569	554.73590	-59.80495	69.24643	559.97253	-65.56563	-58.06351	537.35010	823.31494	93.74636	536.16919	822.15240	
6134	61.330	-199.80238	15.88793	119.27317	325.61734	27.55426	57.54428	-243.76767	12.95055	609.20251	282.77890	10.42753	546.84674	2.97454	817.81824	-72.89689	-82.88430	554.90558	-59.11541	69.28423	560.20099	-65.19379	-57.70697	537.97498	824.75439	93.32133	536.17072	822.14185	
6135	61.340	-199.10594	15.41267	119.47630	325.77115	27.61686	57.45082	-243.53200	13.28658	609.14880	282.95117	10.79566	547.00378	3.18437	817.85657	-72.19965	-82.62817	554.77448	-58.30062	69.66100	560.08014	-63.88402	-57.81244	537.61707	824.96436	93.50029	536.30988	823.17334	
6136	61.350	-198.99405	15.58480	119.29537	325.71170	28.34912	57.24756	-243.18431	13.77329	609.26581	283.19400	10.90107	547.09705	3.37293	817.85101	-71.31271	-82.31268	554.99829	-57.45193	69.87598	560.15350	-63.61765	-57.46980	537.67206	825.86462	93.72369	536.44940	823.54559	
6137	61.360	-199.89587	15.99856	119.06065	322.68896	34.90389	59.46291	-243.14104	14.43113	609.45984	283.65170	10.92443	547.41748	4.03267	817.85803	-70.65599	-82.49323	555.31390	-56.86577	69.73262	560.08710	-62.96762	-56.77480	538.58765	826.96503	94.29148	536.69202	824.49573	
6138	61.370	-199.36311	15.76930	119.19797	319.93396	47.42353	63.89796	-242.91808	14.70198	609.54565	283.60153	11.11944	546.72076	4.80997	817.83722	-70.13583	-82.46718	555.26392	-56.08456	69.49203	559.61462	-61.96102	-56.40537	538.37415	827.38794	94.59006	536.75519	825.22266	
6139	61.380	-198.58395	15.36542	119.31522	318.33978	58.52243	68.82114	-242.63733	15.06459	609.57983	284.01321	11.86258	547.20367	5.57180	817.60675	-69.70605	-82.31621	555.06909	-55.40044	69.40047	559.48590	-62.01898	-56.34405	538.91583	828.03680	94.45325	536.77136	825.53326	
6140	61.390	-198.17593	15.19868	119.50557	319.48004	71.92373	68.35583	-242.55429	15.48023	609.39124	283.90204	11.86381	547.15509	5.82529	817.35413	-69.33799	-82.00357	554.85583	-54.92762	70.14362	559.29248	-61.21071	-56.55519	539.25977	828.47986	95.16550	537.52478	827.25317	
6141	61.400	-197.98862	15.62061	119.06062	319.22818	83.68198	65.53372	-242.54430	15.67325	609.20599	283.87393	12.20084	546.98187	6.00330	816.98901	-68.95264	-81.57511	554.61688	-54.30427	70.86765	558.55499	-59.83543	-57.19577	540.06250	829.09332	94.66393	537.91986	827.55212	
6142	61.410	-197.69745	15.86550	118.96243	318.54285	95.83658	62.04633	-242.53474	15.82344	609.12585	284.06531	12.59478	547.13263	6.10878	816.72650	-68.49507	-81.00213	554.53949	-53.62149	71.14706	558.94916	-59.78791	-56.11530	539.53693	829.52063	94.41094	538.28418	828.22748	
6143	61.420	-197.87288	16.21382	118.85027	315.35016	106.85791	60.86158	-242.48929	16.02418	609.10388	284.37268	12.83316	547.09198	6.48431	816.76959	-67.99924	-80.54742	554.68469	-53.23962	71.58581	559.18115	-59.15168	-56.42865	539.50854	829.76868	94.70588	538.47687	829.03528	
6144	61.430	-197.59665	16.26566	118.83655	312.60968	115.87401	63.27569	-242.16956	16.20970	609.04858	284.64224	12.70351	547.03979	7.23375	817.21759	-67.21808	-80.26589	554.84467	-52.66599	71.89753	559.09583	-58.01197	-56.10143	539.64233	830.44781	95.34650	538.58533	829.80731	
6145	61.440	-197.51167	16.32817	118.86607	309.83984	125.01428	66.91959	-241.89781	16.50045	609.05725	284.77863	12.92681	546.98547	7.76938	817.48712	-66.67477	-80.11399	554.89307	-52.12998	72.01488	559.08484	-57.60148	-55.78376	539.76117	830.83350	95.77943	538.63123	830.49036	
6146	61.450	-197.29312	16.30784	118.84364	308.07941	133.11032	70.82877	-241.61337	16.83476	609.13184	284.88620	13.16087	546.73016	8.16628	817.66162	-66.14887	-79.98392	555.02771	-51.59229	72.07306	559.42010	-57.63962	-55.72845	541.03369	832.28473	96.48400	538.83307	831.12360	
6147	61.460	-197.04733	16.28098	118.79734	308.30057	141.51540	73.59538	-241.31290	17.04527	609.15900	285.11990	13.47609	546.73755	8.22958	817.66431	-65.70761	-79.78423	555.07916	-51.10087	72.25981	559.49921	-57.19950	-55.39803	540.51093	832.40839	97.02818	539.16168	831.68420	
6148	61.470	-196.79140	16.29979	118.77249	307.67941	147.42918	74.51765	-241.09480	17.25428	609.11450	285.29248	13.95393	546.80072	8.15435	817.55463	-65.32377	-79.55846	554.97565	-50.71563	72.65592	559.27789	-56.07638	-55.11591	540.65558	833.00476	97.37602	539.59210	832.33276	
6149	61.480	-196.51729	16.28149	118.74454	306.02420	151.27661	75.05609	-240.96288	17.42313	609.15234	285.55893	14.12209	546.81378	8.05010	817.46326	-64.94848	-79.22177	554.91382	-50.02290	72.86623	559.36157	-55.73910	-54.84452	541.36505	833.71564	96.90083	539.29211	832.27600	
6150	61.490	-196.35416	16.30015	118.67047	303.52008	151.68474	76.35940	-240.86641	17.65473	609.09583	285.73047	14.27408	546.77917	8.12244	817.45508	-64.62271	-79.02467	555.02612	-49.50496	73.34071	559.49835	-55.58562	-54.18800	540.96912	833.95953	97.40147	539.57526	832.72418	
6151	61.500	-196.20140	16.32377	118.73711	300.92194	150.57199	78.43489	-240.65167	17.86427	609.09595	285.95197	14.42442	546.69287	8.45542	817.63013	-64.20540	-78.99796	555.25995	-49.14875	73.03337	559.84229	-55.36787	-53.33129	540.98492	833.73657	97.00552	539.52698	832.16821	
6152	61.510	-195.66982	15.91809	118.87714	298.34406	148.64827	81.22298	-240.40788	18.17650	609.07831	286.10666	14.61463	546.59515	9.05088	817.77954	-63.74583	-78.99919	555.40332	-48.84336	73.07767	559.80237	-55.02250	-53.40123	541.77509	834.45734	97.61735	539.76147	832.43488	
6153	61.520	-196.02928	16.28700	118.77872	296.72003	147.12366	84.63744	-240.20038	18.52223	609.07507	286.24167	14.76169	546.49487	9.61757	817.83539	-63.38572	-78.70636	555.42444	-48.20451	73.24205	559.37170	-54.04710	-52.02510	541.39276	835.02533	99.19031	540.19568	834.01135	
6154	61.530	-195.45987	15.90321	118.92540	294.33740	147.19907	87.03952	-240.01379	18.78548	609.08698	286.29791	14.85001	546.37152	9.92837	817.64392	-63.08283	-78.57539	555.34595	-47.78626	73.32208	559.18970	-53.79424	-52.30598	542.18774	835.70508	99.55920	540.25006	834.33545	
6155	61.540	-195.33020	15.94944	118.88985	293.59418	146.98114	89.69997	-239.92239	18.99162	609.08417	286.40448	14.95921	546.34320	9.97587	817.39911	-62.77894	-78.18108	555.08594	-47.46519	73.36173	559.40881	-54.11693	-51.91529	542.38605	835.92993	99.05237	540.10315	833.62561	
6156	61.550	-195.65990	16.41368	118.72690	292.14896	147.12338	91.85958	-239.87294	19.09988	609.06213	286.56714	15.04129	546.28333	9.92238	817.22052	-62.58575	-77.97958	554.97388	-47.23959	74.47350	558.94495	-53.38721	-50.37334	542.04614	836.15637	99.91435	540.41071	834.74438	
6157	61.560	-195.50356	16.49513	118.72702	290.36707	147.25966	93.92773	-239.71600	19.25257	609.01080	286.76520	15.09766	546.28229	10.13918	817.03223	-62.36840	-77.77921	554.90521	-47.00760	74.45297	559.21771	-53.33329	-50.24567	542.24774	836.49310	100.36442	540.77991	835.14423	
6158	61.570	-195.43158	16.56656	118.66675	287.95959	146.59042	95.97819	-239.63542	19.39771	609.04169	286.93951	15.18266	546.21277	10.48850	816.96460	-62.16635	-77.35006	554.86145	-46.62582	74.78720	559.07507	-53.11171	-50.34773	543.43555	837.10120	99.90425	540.55035	834.47278	
6159	61.580	-195.33362	16.58710	118.68177	285.59515	144.56744	97.54505	-239.51376	19.39428	608.96753	287.02094	15.25187	546.22839	10.81847	816.96228	-61.98425	-76.84937	554.87036	-46.22479	75.09435	559.05865	-52.73912	-50.30214	542.52820	836.79541	100.54897	540.78015	834.91473	
6160	61.590	-195.23314	16.68287	118.65042	283.66925	139.97900	98.49296	-239.42113	19.49198	608.97577	287.02780	15.36368	546.13593	11.32053	817.03278	-61.72565	-76.38311	555.04553	-45.81166	75.54303	558.74390	-51.80591	-50.46011	543.12341	837.40027	100.82961	540.99231	835.21436	
6161	61.600	-195.15102	16.74911	118.64571	282.34720	132.62993	99.41482	-239.36984	19.57329	608.98657	287.10641	15.44030	546.17194	12.10810	817.15497	-61.39468	-76.19296	555.23749	-45.77127	76.36311	558.59637	-51.32199	-50.08131	543.29901	837.89722	101.97985	541.38519	836.43927	
6162	61.610	-195.10133	16.84822	118.59742	280.35278	123.37078	100.75634	-239.25087	19.66315	608.93872	287.16605	15.52513	546.17871	12.81441	817.25775	-61.16784	-75.76679	555.38354	-45.51782	76.45355	558.84027	-51.17097	-49.74781	543.57751	838.11658	102.34087	541.55225	836.95850	
6163	61.620	-195.05498	16.86317	118.58444	279.36700	112.23226	102.17711	-239.18515	19.76117	608.91492	287.22632	15.56888	546.13574	13.43833	817.32935	-60.95524	-75.27761	555.36255	-45.12568	76.76476	558.85236	-50.97899	-49.47424	544.03320	838.31091	102.00675	541.26526	836.41882	
6164	61.630	-194.97124	16.88296	118.54871	278.00284	100.54767	104.06969	-239.09705	19.87548	608.86688	287.27542	15.55186	546.13623	13.70431	817.28967	-60.87749	-74.89913	555.30402	-44.86260	77.06888	559.13092	-51.37840	-49.32724	544.44470	838.46381	102.86427	541.32428	836.72339	
